<svg xmlns="http://www.w3.org/2000/svg" width="200" height="200">
    <path d="M 100 0 l 100 100 l -100 100 l -100 -100 Z" style="fill: #069;"/>
    <path d="M 100 10 l 90 90 l -90 90 l -90 -90 Z" style="fill: #fff;"/>
    <line x1="39.1421356237" y1="100" x2="100" y2="161.857864376" style="stroke: #069; stroke-width: 12"/>
    <line x1="100" y1="161.857864376" x2="100" y2="39.1421356237" style="stroke: #069; stroke-width: 12"/>
    <line x1="100" y1="161.857864376" x2="161.857864376" y2="100" style="stroke: #069; stroke-width: 12"/>
    <path d="M 100 20 l 20 20 l -20 20 l -20 -20 Z" style="fill: #069;"/>
    <path d="M 20 100 l 20 20 l 20 -20 l -20 -20 Z" style="fill: #063;"/>
    <path d="M 100 180 l 20 -20 l -20 -20 l -20 20 Z" style="fill: #069;"/>
    <path d="M 140 100 l 20 20 l 20 -20 l -20 -20 Z" style="fill: #900;"/>
</svg>