<svg xmlns="http://www.w3.org/2000/svg" width="340" height="200">
    <line x1="100" y1="30" x2="30" y2="100" style="stroke: #006699; stroke-width: 20"/>
    <line x1="30" y1="100" x2="100" y2="170" style="stroke: #006699; stroke-width: 20"/>
    <line x1="100" y1="170" x2="170" y2="100" style="stroke: #006699; stroke-width: 20"/>
    <line x1="170" y1="100" x2="240" y2="170" style="stroke: #006699; stroke-width: 20"/>
    <line x1="240" y1="170" x2="310" y2="100" style="stroke: #006699; stroke-width: 20"/>
    <line x1="310" y1="100" x2="240" y2="30" style="stroke: #006699; stroke-width: 20"/>
    <rect x="70" y="0" width="60" height="60" style="fill: #339966;" />
    <rect x="0" y="70" width="60" height="60" style="fill: #006699;" />
    <rect x="70" y="140" width="60" height="60" style="fill: #006699;" />
    <rect x="140" y="70" width="60" height="60" style="fill: #006699;" />
    <rect x="210" y="140" width="60" height="60" style="fill: #006699;" />
    <rect x="280" y="70" width="60" height="60" style="fill: #006699;" />
    <rect x="210" y="0" width="60" height="60" style="fill: #990000;" />

    <path d="M 100 0 l 30 30 l -30 30 l -30 -30 Z" style="fill: #339966;" />
    <path d="M 30 70 l 30 30 l -30 30 l -30 -30 Z" style="fill: #006699;" />
    <path d="M 100 140 l 30 30 l -30 30 l -30 -30 Z" style="fill: #006699;" />
    <path d="M 170 70 l 30 30 l -30 30 l -30 -30 Z" style="fill: #006699;" />
    <path d="M 240 140 l 30 30 l -30 30 l -30 -30 Z" style="fill: #006699;" />
    <path d="M 310 70 l 30 30 l -30 30 l -30 -30 Z" style="fill: #006699;" />
    <path d="M 240 0 l 30 30 l -30 30 l -30 -30 Z" style="fill: #990000;" />
</svg>