<svg xmlns="http://www.w3.org/2000/svg" width="360" height="360">
    <line x1="100" y1="100" x2="260" y2="100" style="stroke: #006699; stroke-width: 20"/>
    <line x1="260" y1="100" x2="260" y2="260" style="stroke: #006699; stroke-width: 20"/>
    <line x1="260" y1="260" x2="100" y2="260" style="stroke: #006699; stroke-width: 20"/>
    <line x1="100" y1="260" x2="180" y2="180" style="stroke: #006699; stroke-width: 20"/>
    <line x1="100" y1="100" x2="180" y2="30" style="stroke: #484848; stroke-width: 15"/>
    <line x1="260" y1="100" x2="330" y2="30" style="stroke: #484848; stroke-width: 15"/>
    <line x1="260" y1="100" x2="330" y2="180" style="stroke: #484848; stroke-width: 15"/>
    <line x1="100" y1="260" x2="30" y2="330" style="stroke: #484848; stroke-width: 15"/>
    <line x1="330" y1="330" x2="260" y2="260" style="stroke: #484848; stroke-width: 15"/>
    <line x1="100" y1="260" x2="30" y2="180" style="stroke: #484848; stroke-width: 15"/>
    <line x1="100" y1="260" x2="180" y2="330" style="stroke: #484848; stroke-width: 15"/>
    <circle cx="330" cy="30" r="22" style="fill: #484848;"/>
    <circle cx="330" cy="330" r="22" style="fill: #484848;"/>
    <circle cx="330" cy="180" r="22" style="fill: #484848;"/>
    <circle cx="30" cy="330" r="22" style="fill: #484848;"/>
    <circle cx="30" cy="180" r="22" style="fill: #484848;"/>
    <circle cx="180" cy="30" r="22" style="fill: #484848;"/>
    <circle cx="180" cy="330" r="22" style="fill: #484848;"/>
    <circle cx="100" cy="100" r="30" style="fill: #339966;"/>
    <circle cx="260" cy="100" r="30" style="fill: #006699;"/>
    <circle cx="260" cy="260" r="30" style="fill: #006699;"/>
    <circle cx="100" cy="260" r="30" style="fill: #006699;"/>
    <circle cx="180" cy="180" r="30" style="fill: #990000;"/>
</svg>