<?xml version="1.0" encoding="UTF-8" standalone="no"?>
<svg xmlns="http://www.w3.org/2000/svg" width="81" height="81">
	<path d="M 0,40.5 l 3,3 v -6 z m 6,6 l 9,9 v -30 l -9,9 z m 12,12 l 9,9 v -56 l -9,9 z" style="fill:#990000" />
  	<path d="M 81 40.5 l -3,3 v -6 z m -6,6 l -3,3 v -18 l 3,3 z M 30,70.5 l 3,3 v -66 l -3,3 z m 6,6 l 3,3 v -78 l -3,3 z" style="fill:#339966" />
  	<path d="M 42,80.5 l 9,-9 v -62 l -9,-9 z m 12,-12 l 3,-3 v -50 l -3,-3 z m 6,-6 l 9,-9 v -26 l -9,-9 z" style="fill:#006699" />
</svg>
